<svg width="13" height="14" viewBox="0 0 13 14" fill="none" xmlns="http://www.w3.org/2000/svg">
<path fill-rule="evenodd" clip-rule="evenodd" d="M6.5 12.4167C9.49154 12.4167 11.9167 9.99154 11.9167 7C11.9167 4.00846 9.49154 1.58333 6.5 1.58333C3.50846 1.58333 1.08333 4.00846 1.08333 7C1.08333 9.99154 3.50846 12.4167 6.5 12.4167ZM6.5 13.5C10.0899 13.5 13 10.5899 13 7C13 3.41015 10.0899 0.5 6.5 0.5C2.91015 0.5 0 3.41015 0 7C0 10.5899 2.91015 13.5 6.5 13.5Z" fill="black" fill-opacity="0.8"/>
<path fill-rule="evenodd" clip-rule="evenodd" d="M6.49984 2.66663C6.79899 2.66663 7.0415 2.90914 7.0415 3.20829V7.54163C7.0415 7.84078 6.79899 8.08329 6.49984 8.08329C6.20068 8.08329 5.95817 7.84078 5.95817 7.54163V3.20829C5.95817 2.90914 6.20068 2.66663 6.49984 2.66663Z" fill="black" fill-opacity="0.8"/>
<path fill-rule="evenodd" clip-rule="evenodd" d="M6.09274 7.18444C6.29001 6.95954 6.63224 6.93715 6.85714 7.13442L9.0623 9.06872C9.28719 9.26599 9.30959 9.60822 9.11232 9.83312C8.91505 10.058 8.57281 10.0804 8.34792 9.88314L6.14276 7.94883C5.91786 7.75156 5.89547 7.40933 6.09274 7.18444Z" fill="black" fill-opacity="0.8"/>
</svg>
